HIERARCHY
ROOT Hips
{
     OFFSET -22.03220 92.74130 -27.62860
     CHANNELS 6 Xposition Yposition Zposition Zrotation Xrotation Yrotation
     JOINT Spine
     {
          OFFSET 0.00000 11.89050 0.00000
          CHANNELS 3 Zrotation Xrotation Yrotation
          JOINT Spine1
          {
               OFFSET 0.00000 25.65740 0.12766
               CHANNELS 3 Zrotation Xrotation Yrotation
               JOINT HEad
               {
                    OFFSET -0.00000 8.73416 0.01134
                    CHANNELS 3 Zrotation Xrotation Yrotation
                    End Site
                    {
                         OFFSET -0.29000 12.77420 2.51395
                    }
               }
               JOINT LeftShoulder1
               {
                    OFFSET 8.99000 -0.36225 -0.22000
                    CHANNELS 3 Zrotation Xrotation Yrotation
                    JOINT LeftArm
                    {
                         OFFSET 10.28270 -0.00338 0.32212
                         CHANNELS 3 Zrotation Xrotation Yrotation
                         JOINT LeftForeArm
                         {
                              OFFSET 32.76690 0.09914 -1.42434
                              CHANNELS 3 Zrotation Xrotation Yrotation
                              JOINT LeftHand
                              {
                                   OFFSET 27.56430 0.08536 1.02216
                                   CHANNELS 3 Zrotation Xrotation Yrotation
                                   End Site
                                   {
                                        OFFSET 16.74430 -0.60000 1.50291
                                   }
                              }
                         }
                    }
               }
               JOINT RightShoulder
               {
                    OFFSET -8.99000 -0.36225 -0.22000
                    CHANNELS 3 Zrotation Xrotation Yrotation
                    JOINT RightArm
                    {
                         OFFSET -10.28270 -0.00338 0.32212
                         CHANNELS 3 Zrotation Xrotation Yrotation
                         JOINT RightForeArm
                         {
                              OFFSET -32.89710 0.09914 -1.42434
                              CHANNELS 3 Zrotation Xrotation Yrotation
                              JOINT RightHand
                              {
                                   OFFSET -27.49210 0.08536 1.02216
                                   CHANNELS 3 Zrotation Xrotation Yrotation
                                   End Site
                                   {
                                        OFFSET -16.63120 -0.60000 1.50291
                                   }
                              }
                         }
                    }
               }
          }
     }
     JOINT LeftUpLeg
     {
          OFFSET 8.94580 -8.66707 0.10165
          CHANNELS 3 Zrotation Xrotation Yrotation
          JOINT LeftLeg
          {
               OFFSET 0.00000 -44.42270 1.37270
               CHANNELS 3 Zrotation Xrotation Yrotation
               JOINT LeftFoot
               {
                    OFFSET -0.25355 -42.09240 -1.46059
                    CHANNELS 3 Zrotation Xrotation Yrotation
                    JOINT LeftToes
                    {
                         OFFSET -0.04000 -4.41509 8.49910
                         CHANNELS 3 Zrotation Xrotation Yrotation
                         End Site
                         {
                              OFFSET 0.08000 -0.04745 9.77979
                         }
                    }
               }
          }
     }
     JOINT RightUpLeg
     {
          OFFSET -8.94580 -8.66707 0.10165
          CHANNELS 3 Zrotation Xrotation Yrotation
          JOINT RightLeg
          {
               OFFSET -0.00000 -44.42270 1.37270
               CHANNELS 3 Zrotation Xrotation Yrotation
               JOINT RightFoot
               {
                    OFFSET 0.25355 -42.09240 -1.46059
                    CHANNELS 3 Zrotation Xrotation Yrotation
                    JOINT RightToes
                    {
                         OFFSET 0.04000 -4.41509 8.49910
                         CHANNELS 3 Zrotation Xrotation Yrotation
                         End Site
                         {
                              OFFSET -0.08000 -0.13745 9.77979
                         }
                    }
               }
          }
     }
}
MOTION
Frames: 8
Frame Time: 0.01667
30.29560 97.29990 -14.77820 -10.95760 -11.35210 -28.68510 -0.99752 12.66850 -1.28695 -0.65164 25.34370 -2.46193 10.62770 -22.28050 14.72310 -0.00000 -0.00000 0.00000 -80.52060 -47.21710 -78.67580 -21.51850 22.30480 -77.82410 12.86740 8.06737 -12.96390 11.88570 0.97019 3.80598 85.50540 -0.55887 68.79050 13.92900 26.34560 85.09000 23.53220 13.34310 11.91740 18.87020 1.28827 -16.94140 -21.15900 4.48637 60.29290 -4.24976 9.43568 0.55955 0.00000 -0.00000 0.00000 -25.54920 14.63390 17.95860 37.52750 7.83398 -16.32760 -16.76050 14.54230 3.23149 4.58553 -36.68080 7.33660 
29.91620 97.26140 -14.92050 -10.69930 -11.35900 -28.07950 -1.00200 12.60440 -1.27694 -0.70725 25.21600 -2.41975 10.60890 -22.30590 14.34600 -0.00000 -0.00000 0.00000 -80.20600 -46.89680 -78.09640 -21.06930 22.23500 -78.08370 12.87870 8.07859 -12.84400 11.98840 0.99218 3.91869 85.78120 -0.78557 68.86730 13.66840 26.43230 85.38300 23.28760 13.32910 12.01920 19.00850 1.08644 -16.92720 -21.19760 4.37231 59.82620 -4.47367 9.69413 0.60132 -0.00000 -0.00000 -0.00000 -25.40450 14.77770 17.68920 37.75870 7.91261 -16.89690 -16.90990 13.75200 3.13900 4.46850 -36.16090 7.18626 
29.53220 97.22540 -15.05210 -10.45240 -11.38080 -27.48160 -1.04181 12.54950 -1.23019 -0.76960 25.10230 -2.32285 10.64700 -22.45180 13.98290 -0.00000 -0.00000 0.00000 -80.22810 -46.70480 -77.59050 -20.86670 22.45750 -78.29240 13.01390 8.07335 -12.70460 12.13330 1.01246 4.00410 86.06170 -1.00805 69.08850 13.37140 26.52600 85.69860 23.05250 13.31720 12.12630 19.12170 0.89195 -16.85310 -21.20810 4.33345 59.23860 -4.80150 9.92262 0.65896 0.00000 -0.00000 0.00000 -25.26510 15.04760 17.48030 37.96380 7.77536 -17.52100 -17.15560 13.08970 3.08220 4.39213 -35.87630 7.03581 
29.14730 97.19020 -15.17200 -10.20060 -11.40970 -26.89800 -1.11666 12.48670 -1.14555 -0.85438 24.96920 -2.16070 10.71510 -22.67470 13.56550 -0.00000 -0.00000 0.00000 -80.57860 -46.67960 -77.07010 -21.13470 23.02300 -78.36230 13.29950 8.04388 -12.58490 12.32340 1.03605 4.09418 86.28260 -1.22576 69.39080 13.27100 26.59690 85.90360 22.80800 13.29530 12.19410 19.16310 0.71462 -16.66330 -21.11910 4.34989 58.56410 -5.03724 10.21460 0.70601 -0.00000 0.00000 -0.00000 -25.13760 15.39640 17.33020 38.14180 7.47476 -18.19110 -17.52900 12.52060 3.06030 4.35165 -35.80010 6.89051 
28.76790 97.15410 -15.27500 -9.91658 -11.44100 -26.33830 -1.19988 12.40910 -1.03244 -0.96362 24.80640 -1.93459 10.72020 -22.88640 13.00740 -0.00000 -0.00000 0.00000 -81.13880 -46.80630 -76.40570 -21.88080 23.82070 -78.28820 13.64850 7.99963 -12.51740 12.43710 1.05815 4.19913 86.46720 -1.41235 69.75940 13.43590 26.62400 85.93280 22.53420 13.26070 12.22220 19.10280 0.55832 -16.40730 -20.92850 4.36619 57.91630 -5.06915 10.59090 0.72524 0.00000 0.00000 0.00000 -25.03400 15.73570 17.20250 38.28270 7.18117 -18.83540 -17.88110 11.82640 3.01068 4.27716 -35.54920 6.71274 
28.39870 97.11480 -15.35990 -9.59902 -11.48700 -25.82400 -1.25999 12.33390 -0.89559 -1.09056 24.65270 -1.63927 10.57590 -22.99800 12.23460 -0.00000 -0.00000 0.00000 -81.70850 -47.00070 -75.48110 -22.86040 24.61240 -78.18890 13.88790 7.96951 -12.47110 12.30510 1.06700 4.30362 86.71810 -1.53139 70.24140 13.73160 26.60440 85.82780 22.27360 13.22400 12.23130 18.96400 0.42837 -16.24960 -20.72030 4.33432 57.43770 -4.96615 10.96940 0.72288 0.00000 -0.00000 -0.00000 -24.95360 16.00940 17.08790 38.37560 7.03942 -19.40320 -18.01790 10.81350 2.86850 4.10918 -34.75830 6.48411 
28.03670 97.06920 -15.43410 -9.27517 -11.55740 -25.38520 -1.29722 12.28570 -0.72664 -1.23256 24.55660 -1.26075 10.28990 -22.98010 11.24630 -0.00000 -0.00000 0.00000 -82.19630 -47.24430 -74.28610 -23.81520 25.31010 -78.20330 13.91290 7.97780 -12.36850 11.86330 1.06122 4.42669 87.09620 -1.59199 70.91060 13.93090 26.55120 85.70470 22.10790 13.19730 12.22000 18.80790 0.31953 -16.29260 -20.58550 4.27056 57.16520 -4.88250 11.23540 0.71897 -0.00000 -0.00000 0.00000 -24.87850 16.22830 17.01750 38.42580 7.03593 -19.92310 -17.93480 9.48324 2.63794 3.85791 -33.41290 6.23839 
27.67360 97.01550 -15.51000 -8.97203 -11.63820 -25.03720 -1.33526 12.27230 -0.50737 -1.39529 24.52940 -0.77441 9.95754 -22.91750 10.12240 -0.00000 -0.00000 0.00000 -82.68810 -47.63060 -72.92450 -24.66270 26.08140 -78.37140 13.75840 8.02517 -12.15520 11.21870 1.04976 4.59699 87.52700 -1.67072 71.82030 13.84020 26.48560 85.68710 22.10710 13.18290 12.14910 18.70200 0.20163 -16.49080 -20.57810 4.22786 57.01230 -4.88228 11.33820 0.72267 0.00000 0.00000 -0.00000 -24.77750 16.43070 17.00160 38.44630 7.05420 -20.47140 -17.83570 8.00090 2.38248 3.58470 -31.82440 6.02642 
